<?xml version="1.0" encoding="UTF-8" standalone="no"?>
<!-- Created with Inkscape (http://www.inkscape.org/) -->

<svg
   version="1.1"
   id="svg1"
   width="128"
   height="128"
   viewBox="0 0 128 128"
   sodipodi:docname="ergogen.svg"
   inkscape:version="1.3.2 (091e20e, 2023-11-25, custom)"
   xmlns:inkscape="http://www.inkscape.org/namespaces/inkscape"
   xmlns:sodipodi="http://sodipodi.sourceforge.net/DTD/sodipodi-0.dtd"
   xmlns="http://www.w3.org/2000/svg"
   xmlns:svg="http://www.w3.org/2000/svg">
  <defs
     id="defs1" />
  <sodipodi:namedview
     id="namedview1"
     pagecolor="#505050"
     bordercolor="#eeeeee"
     borderopacity="1"
     inkscape:showpageshadow="0"
     inkscape:pageopacity="0"
     inkscape:pagecheckerboard="0"
     inkscape:deskcolor="#505050"
     inkscape:zoom="9.5390625"
     inkscape:cx="59.806716"
     inkscape:cy="64"
     inkscape:window-width="2558"
     inkscape:window-height="1401"
     inkscape:window-x="2353"
     inkscape:window-y="1440"
     inkscape:window-maximized="0"
     inkscape:current-layer="g1"
     showgrid="false" />
  <g
     inkscape:groupmode="layer"
     inkscape:label="Image"
     id="g1"
     style="display:inline">
    <path
       style="fill:#ffffff;stroke-width:0.104997;paint-order:stroke fill markers"
       d="m 18.013923,32.098894 c -2.235018,0.429098 -3.983986,2.48747 -4.035279,4.764418 0.08168,3.061216 0.369927,6.117697 0.595967,9.171865 0.256406,2.340347 2.30624,4.280537 4.656757,4.412202 26.09535,0.211731 52.185854,0.285763 78.278255,0.539107 1.906871,2.136474 3.661637,4.424213 5.743657,6.395373 1.89825,1.718455 5.09173,1.753941 6.91998,-0.08129 1.41635,-1.222432 1.71565,-3.184084 1.67084,-4.957103 0.0699,-5.208752 0.11095,-10.422136 0.0749,-15.629184 -0.0756,-2.517235 -2.32645,-4.657108 -4.82827,-4.706501 -29.406615,0.002 -58.814604,-0.01417 -88.220432,0.0081 -0.285448,0.02768 -0.570897,0.05536 -0.856345,0.08304 z"
       id="path2" />
    <path
       style="fill:#ffffff;stroke-width:0.104997;paint-order:stroke fill markers"
       d="m 43.088657,54.038698 c -2.108624,0.05074 -4.231936,-0.09442 -6.331409,0.09552 -2.110382,0.212761 -3.418161,2.034932 -4.836691,3.391374 -2.350552,2.40917 -4.762266,4.765424 -7.053255,7.228503 -1.789198,2.013982 -1.434915,5.453211 0.721955,7.065744 1.398708,1.239162 3.355115,1.145477 5.101161,1.111299 12.046098,-0.01388 24.094807,0.02619 36.139274,-0.02141 1.770764,-0.01079 3.21264,-1.180536 4.317203,-2.455607 2.650245,-2.745645 5.381431,-5.41937 7.981222,-8.209846 1.786399,-2.016628 1.426796,-5.455522 -0.732529,-7.064825 -1.426132,-1.259926 -3.41896,-1.131348 -5.192678,-1.109548 -10.038082,-0.0119 -20.07616,-0.03574 -30.114253,-0.03121 z"
       id="path3" />
    <path
       style="fill:#ffffff;stroke-width:0.104997;paint-order:stroke fill markers"
       d="m 106.08722,67.775184 c -2.08911,0.328486 -3.36496,2.140252 -4.82043,3.479525 -1.615378,1.591673 -3.228446,3.185682 -4.840705,4.780508 -25.816832,0.0067 -51.634968,-0.01349 -77.450985,0.01012 -2.498285,0.0097 -4.75207,2.137445 -4.866358,4.639325 -0.02018,2.742286 -0.155607,5.516655 0.259462,8.239818 0.27389,2.02061 1.330876,4.076779 3.286738,4.910881 1.873327,0.823186 3.9829,0.548365 5.972569,0.708375 15.811465,0.495609 31.632389,0.314717 47.448857,0.373365 12.018745,-0.0027 24.040049,0.04615 36.057192,0.0088 2.50297,-0.04363 4.69916,-2.231476 4.7782,-4.729475 0.0262,-5.898163 0.0326,-11.803055 -0.003,-17.701164 -0.0394,-2.655931 -2.5214,-4.952835 -5.17243,-4.767128 -0.21628,0.01569 -0.43257,0.03138 -0.64886,0.04707 z"
       id="path4" />
    <path
       style="display:inline;fill:#000000"
       d="M 19.666667,89.333333 C 19.3,88.966667 19,86.941667 19,84.833333 V 81 H 58.712148 98.424297 L 102.71215,76.791792 107,72.583584 V 81.291792 90 H 63.666667 c -23.833334,0 -43.633334,-0.3 -44,-0.666667 z M 33,63.5 37.416416,59 h 19 19 L 71,63.5 66.583584,68 h -19 -19 z M 103.14417,49.926607 99.78835,46.022506 59.644175,45.761253 19.5,45.5 19.192502,41.25 18.885004,37 H 62.942502 107 v 8.5 c 0,4.675 -0.1125,8.461909 -0.25,8.415354 -0.1375,-0.04655 -1.76012,-1.841491 -3.60583,-3.988747 z"
       id="path1" />
  </g>
</svg>
